<?xml version="1.0" encoding="UTF-8"?>
<svg xmlns="http://www.w3.org/2000/svg" xmlns:xlink="http://www.w3.org/1999/xlink" viewBox="0 0 48 48" width="48px" height="48px">
<g id="surface3207067">
<path style=" stroke:none;fill-rule:nonzero;fill:rgb(80.000001%,80.000001%,80.000001%);fill-opacity:1;" d="M 24 45.839844 C 11.9375 45.839844 2.160156 36.0625 2.160156 24 C 2.160156 11.9375 11.9375 2.160156 24 2.160156 C 36.0625 2.160156 45.839844 11.9375 45.839844 24 C 45.839844 36.0625 36.0625 45.839844 24 45.839844 Z M 24 45.839844 "/>
<path style=" stroke:none;fill-rule:nonzero;fill:rgb(100%,83.92157%,0%);fill-opacity:1;" d="M 9.601562 38.398438 L 9.601562 9.601562 L 38.398438 9.601562 L 38.398438 38.398438 Z M 9.601562 38.398438 "/>
<path style=" stroke:none;fill-rule:nonzero;fill:rgb(0%,0%,0.392157%);fill-opacity:1;" d="M 28.429688 31.15625 C 28.984375 32.058594 29.585938 32.917969 30.859375 32.917969 C 31.929688 32.917969 32.492188 32.386719 32.492188 31.652344 C 32.492188 30.769531 31.910156 30.457031 30.734375 29.945312 L 30.089844 29.667969 C 28.226562 28.878906 26.984375 27.886719 26.984375 25.796875 C 26.984375 23.867188 28.460938 22.402344 30.769531 22.402344 C 32.410156 22.402344 33.589844 22.96875 34.441406 24.460938 L 32.429688 25.746094 C 31.988281 24.953125 31.507812 24.644531 30.769531 24.644531 C 30.011719 24.644531 29.53125 25.121094 29.53125 25.746094 C 29.53125 26.515625 30.011719 26.828125 31.121094 27.304688 L 31.765625 27.582031 C 33.960938 28.515625 35.199219 29.472656 35.199219 31.617188 C 35.199219 33.933594 33.371094 35.199219 30.921875 35.199219 C 28.519531 35.199219 27.160156 33.996094 26.398438 32.503906 Z M 19.160156 31.222656 C 19.566406 31.949219 20.179688 32.503906 21.066406 32.503906 C 21.914062 32.503906 22.398438 32.171875 22.398438 30.871094 L 22.398438 22.398438 L 25.066406 22.398438 L 25.066406 31.28125 C 25.066406 33.972656 23.503906 35.199219 21.222656 35.199219 C 19.160156 35.199219 17.671875 33.804688 17.066406 32.503906 Z M 19.160156 31.222656 "/>
</g>
</svg>
